<svg width="14" height="15" viewBox="0 0 14 15" fill="none" xmlns="http://www.w3.org/2000/svg">
                <path opacity="0.999" fill-rule="evenodd" clip-rule="evenodd"
                  d="M2.57996 0C4.84557 0 7.11122 0 9.37683 0C9.37194 1.00591 9.37683 2.01177 9.39148 3.01758C9.54473 3.4788 9.86213 3.72293 10.3436 3.75C11.2616 4.6875 12.1893 5.61524 13.1268 6.5332C13.1317 9.12111 13.1268 11.709 13.1122 14.2969C13.0714 14.4643 12.9933 14.6108 12.8778 14.7363C12.743 14.8572 12.5917 14.9451 12.4237 15C9.14246 15 5.86121 15 2.57996 15C2.30401 14.9048 2.09404 14.7291 1.95007 14.4727C1.93054 14.4141 1.91101 14.3555 1.89148 14.2969C1.87683 13.9064 1.87195 13.5157 1.87683 13.125C4.88465 13.1299 7.89248 13.125 10.9003 13.1104C11.0375 13.0708 11.1401 12.9878 11.2079 12.8613C11.248 12.6785 11.2627 12.4929 11.2518 12.3047C11.2567 10.6543 11.2518 9.00387 11.2372 7.35352C11.1711 7.1995 11.0588 7.09696 10.9003 7.0459C7.89248 7.03125 4.88465 7.02636 1.87683 7.03125C1.87195 4.92185 1.87683 2.81248 1.89148 0.703125C1.93227 0.535731 2.0104 0.389247 2.12585 0.263672C2.26062 0.142787 2.41197 0.0548962 2.57996 0Z"
                  fill="#E1E4E6" />
                <path fill-rule="evenodd" clip-rule="evenodd"
                  d="M9.37684 0C9.38659 0 9.39638 0 9.40613 0C10.6366 1.24023 11.8671 2.48047 13.0975 3.7207C12.1846 3.74994 11.2666 3.75973 10.3436 3.75C9.86214 3.72293 9.54474 3.4788 9.39148 3.01758C9.37684 2.01177 9.37194 1.00591 9.37684 0Z"
                  fill="#B0B7BD" />
                <path fill-rule="evenodd" clip-rule="evenodd"
                  d="M13.0957 3.7207C13.1249 4.65319 13.1347 5.59069 13.125 6.5332C12.1875 5.61524 11.2598 4.6875 10.3418 3.75C11.2648 3.75973 12.1828 3.74994 13.0957 3.7207Z"
                  fill="#C9D0D7" />
                <path opacity="0.999" fill-rule="evenodd" clip-rule="evenodd"
                  d="M1.875 7.03309C4.88282 7.02819 7.89065 7.03309 10.8984 7.04773C11.0569 7.0988 11.1693 7.20134 11.2354 7.35535C11.25 9.0057 11.2549 10.6561 11.25 12.3065C11.187 12.472 11.0698 12.5843 10.8984 12.6434C7.89065 12.6581 4.88282 12.663 1.875 12.6581C1.34757 12.663 0.820222 12.6581 0.292969 12.6434C0.161134 12.5897 0.0683591 12.497 0.0146492 12.3651C-0.00488306 10.6854 -0.00488306 9.00573 0.0146492 7.32605C0.0683591 7.19422 0.161134 7.10143 0.292969 7.04773C0.820222 7.03309 1.34757 7.02819 1.875 7.03309Z"
                  fill="#09BCFF" />
                <path fill-rule="evenodd" clip-rule="evenodd"
                  d="M5.55612 8.55469C6.57709 8.59412 7.08003 9.12146 7.06491 10.1367C6.94925 10.7407 6.59279 11.1166 5.99558 11.2646C4.8324 11.3417 4.28065 10.7997 4.3403 9.63867C4.52156 9.02268 4.92685 8.66136 5.55612 8.55469Z"
                  fill="#FCFEFE" />
                <path fill-rule="evenodd" clip-rule="evenodd"
                  d="M8.64591 8.5857C8.97017 8.57155 9.27289 8.64479 9.55411 8.80543C9.71665 8.89147 9.78989 9.02331 9.77384 9.20094C9.69805 9.33477 9.58572 9.37871 9.43692 9.33277C9.20164 9.09696 8.91846 9.01883 8.58731 9.0984C8.19336 9.23674 7.99807 9.51506 8.00138 9.93336C8.05382 10.6534 8.43468 10.9318 9.14396 10.7683C9.26873 10.7117 9.38592 10.6433 9.49552 10.5632C9.72025 10.5244 9.82279 10.6172 9.80313 10.8416C9.70739 11.0291 9.55602 11.1511 9.34903 11.2078C8.09395 11.4371 7.49337 10.9146 7.54728 9.64039C7.69171 9.05152 8.05792 8.69996 8.64591 8.5857Z"
                  fill="#FCFDFE" />
                <path fill-rule="evenodd" clip-rule="evenodd"
                  d="M1.66992 8.67371C2.08995 8.66882 2.50989 8.67371 2.92969 8.68836C3.66108 8.92306 3.97846 9.426 3.88184 10.1971C3.76916 10.7786 3.42246 11.1253 2.8418 11.2372C2.45118 11.2567 2.06054 11.2567 1.66992 11.2372C1.6176 11.2142 1.57365 11.18 1.53809 11.1346C1.51855 10.3534 1.51855 9.57216 1.53809 8.7909C1.57901 8.7449 1.62295 8.70582 1.66992 8.67371Z"
                  fill="#FCFEFE" />
                <path fill-rule="evenodd" clip-rule="evenodd"
                  d="M5.51855 9.06011C6.05462 9.00793 6.41105 9.23255 6.58788 9.73394C6.63256 10.529 6.25659 10.8855 5.45995 10.8033C4.95862 10.6065 4.75841 10.2403 4.85937 9.70464C4.95983 9.36489 5.17955 9.15005 5.51855 9.06011Z"
                  fill="#09BCFF" />
                <path fill-rule="evenodd" clip-rule="evenodd"
                  d="M2.02148 9.11315C2.28533 9.10829 2.549 9.11315 2.8125 9.1278C3.19796 9.2497 3.39325 9.51338 3.39844 9.91882C3.42003 10.3548 3.22474 10.638 2.8125 10.7684C2.549 10.7831 2.28533 10.7879 2.02148 10.7831C2.02148 10.2264 2.02148 9.66979 2.02148 9.11315Z"
                  fill="#09BCFF" />
                <path fill-rule="evenodd" clip-rule="evenodd"
                  d="M11.25 12.3047C11.2608 12.4929 11.2462 12.6785 11.2061 12.8613C11.1382 12.9878 11.0357 13.0708 10.8984 13.1104C7.89064 13.125 4.88282 13.1299 1.875 13.125C1.875 12.9688 1.875 12.8125 1.875 12.6562C4.88282 12.6611 7.89064 12.6562 10.8984 12.6416C11.0698 12.5825 11.187 12.4702 11.25 12.3047Z"
                  fill="#C9D1D8" />
              </svg>