 <svg width="20" height="15" viewBox="0 0 20 15" fill="none" xmlns="http://www.w3.org/2000/svg">
                <path
                  d="M9.64202 0C6.93666 0 4.77037 1.23214 3.19336 2.69866C1.6264 4.15179 0.578404 5.89286 0.0828683 7.08817C-0.0276228 7.35268 -0.0276228 7.64732 0.0828683 7.91183C0.578404 9.10714 1.6264 10.8482 3.19336 12.3013C4.77037 13.7679 6.93666 15 9.64202 15C12.3474 15 14.5137 13.7679 16.0907 12.3013C17.6576 10.8449 18.7056 9.10714 19.2045 7.91183C19.315 7.64732 19.315 7.35268 19.2045 7.08817C18.7056 5.89286 17.6576 4.15179 16.0907 2.69866C14.5137 1.23214 12.3474 0 9.64202 0ZM4.82059 7.5C4.82059 6.22128 5.32856 4.99493 6.23276 4.09073C7.13695 3.18654 8.3633 2.67857 9.64202 2.67857C10.9207 2.67857 12.1471 3.18654 13.0513 4.09073C13.9555 4.99493 14.4634 6.22128 14.4634 7.5C14.4634 8.77872 13.9555 10.0051 13.0513 10.9093C12.1471 11.8135 10.9207 12.3214 9.64202 12.3214C8.3633 12.3214 7.13695 11.8135 6.23276 10.9093C5.32856 10.0051 4.82059 8.77872 4.82059 7.5ZM9.64202 5.35714C9.64202 6.53906 8.68108 7.5 7.49916 7.5C7.26144 7.5 7.03376 7.45982 6.81948 7.38951C6.63532 7.32924 6.42104 7.44308 6.42773 7.63728C6.43778 7.8683 6.47126 8.09933 6.53488 8.33036C6.99358 10.0446 8.75809 11.0625 10.4724 10.6038C12.1867 10.1451 13.2045 8.38058 12.7458 6.66629C12.3742 5.27679 11.1454 4.34263 9.7793 4.28571C9.5851 4.27902 9.47126 4.48995 9.53153 4.67745C9.60184 4.89174 9.64202 5.11942 9.64202 5.35714Z"
                  fill="#1B85F3" />
              </svg>